<svg xmlns="http://www.w3.org/2000/svg" width="70" height="70" viewBox="0 0 70 70" fill="none"><path d="M38.127 29.8262C37.2862 30.8518 36.3462 31.7918 35.3206 32.6327C31.3354 35.9256 26.4708 37.2446 22.3359 36.2249H22.2611C20.1375 32.221 20.3901 27.1507 22.813 22.52C23.4331 21.357 24.1697 20.26 25.0115 19.2458C25.3763 18.8061 25.7505 18.3851 26.1434 17.9829C27.3516 16.7311 28.7237 15.6486 30.2221 14.7648C33.374 12.7609 37.1823 12.063 40.84 12.819H40.9616C41.7903 14.4932 42.2376 16.3302 42.2713 18.198C42.3093 20.0824 42.0213 21.9592 41.42 23.7455C40.6989 25.9548 39.5832 28.015 38.127 29.8262V29.8262Z" stroke="#2E524A" stroke-width="0.935491" stroke-miterlimit="10"></path><path d="M38.1271 29.8257C37.2863 30.8513 36.3462 31.7913 35.3206 32.6321C31.3354 35.9251 26.4709 37.2441 22.336 36.2244V36.1683C20.2125 32.1644 20.465 27.094 22.888 22.4634C23.508 21.3003 24.2446 20.2033 25.0864 19.1891C25.4512 18.7495 25.8254 18.3285 26.2183 17.9262C27.4266 16.6745 28.7986 15.592 30.2971 14.7081C33.4489 12.7042 37.2572 12.0063 40.9149 12.7623H41.0365C41.8652 14.4365 42.3125 16.2736 42.3462 18.1414C42.3842 20.0258 42.0962 21.9026 41.4949 23.6888C40.7573 25.9233 39.6158 28.0034 38.1271 29.8257V29.8257Z" stroke="#2E524A" stroke-width="0.935491" stroke-miterlimit="10"></path><path d="M20.8205 38.3674V38.3581L20.8579 38.3113L24.656 33.4935L28.9593 28.0303L32.7855 23.1844L36.6677 18.2544L40.9336 12.8379" stroke="#2E524A" stroke-width="0.935491" stroke-miterlimit="10"></path><path d="M36.8641 31.2099L27.5467 29.6289" stroke="#2E524A" stroke-width="0.935491" stroke-miterlimit="10"></path><path d="M23.8421 20.7324L27.5467 29.6289" stroke="#2E524A" stroke-width="0.935491" stroke-miterlimit="10"></path><path d="M40.9804 24.3625L32.879 22.9219" stroke="#2E524A" stroke-width="0.935491" stroke-miterlimit="10"></path><path d="M29.7825 15.3535L32.879 22.9216" stroke="#2E524A" stroke-width="0.935491" stroke-miterlimit="10"></path><path d="M22.2705 36.2533C22.2705 36.2533 40.9803 45.8795 50.0452 25.5981C50.0452 25.5981 48.7262 24.4194 40.6903 25.5981" stroke="#2E524A" stroke-width="0.935491" stroke-miterlimit="10"></path><path d="M17.4434 52.2396V48.3105H19.9038V48.9935H18.1263V49.8073H19.5389V50.4902H18.1263V51.5661H19.9038V52.249L17.4434 52.2396Z" fill="#2E524A"></path><path d="M22.5044 52.3157C22.2912 52.3158 22.0795 52.281 21.8776 52.2128C21.687 52.1483 21.5095 52.0501 21.3537 51.9228C21.2051 51.7986 21.0921 51.6371 21.0263 51.455L21.6718 51.2211C21.707 51.3018 21.7616 51.3725 21.8308 51.4269C21.9208 51.4944 22.0222 51.5451 22.1302 51.5766C22.251 51.6155 22.3774 51.6345 22.5044 51.6327C22.6352 51.6346 22.7652 51.6124 22.8879 51.5673C22.9941 51.5307 23.0902 51.4698 23.1686 51.3895C23.2043 51.356 23.2328 51.3154 23.2521 51.2703C23.2714 51.2252 23.2812 51.1766 23.2808 51.1276C23.2823 51.0798 23.273 51.0322 23.2536 50.9885C23.2341 50.9447 23.2051 50.9059 23.1686 50.875C23.0793 50.8042 22.9779 50.7503 22.8692 50.716C22.75 50.676 22.6281 50.6448 22.5044 50.6224C22.2479 50.5872 21.9967 50.5212 21.756 50.426C21.5513 50.3498 21.3706 50.2206 21.2321 50.0518C21.0952 49.8759 21.0255 49.657 21.0357 49.4343C21.0307 49.2081 21.1033 48.9869 21.2415 48.8076C21.3826 48.6286 21.5658 48.4872 21.7747 48.396C22.0042 48.2937 22.2532 48.2426 22.5044 48.2463C22.7144 48.247 22.9229 48.2818 23.1218 48.3492C23.3133 48.4116 23.4911 48.51 23.6457 48.6392C23.7953 48.7624 23.9085 48.9242 23.9731 49.1069L23.3276 49.3408C23.2956 49.2583 23.2404 49.1868 23.1686 49.135C23.0791 49.0722 22.9816 49.0218 22.8786 48.9853C22.7569 48.9508 22.6308 48.935 22.5044 48.9385C22.3741 48.9328 22.244 48.9518 22.1208 48.9947C22.0141 49.0357 21.9158 49.0959 21.8308 49.1724C21.7955 49.2063 21.7674 49.247 21.7481 49.292C21.7288 49.337 21.7187 49.3854 21.7186 49.4343C21.7161 49.4856 21.7239 49.5369 21.7416 49.5851C21.7592 49.6333 21.7864 49.6775 21.8215 49.715C21.9047 49.7855 22.0045 49.8338 22.1115 49.8553L22.5044 49.9395C22.7533 49.9725 22.996 50.0418 23.2247 50.1453C23.4327 50.2298 23.6183 50.361 23.7673 50.5289C23.9 50.6997 23.9695 50.9113 23.9637 51.1276C23.9678 51.3523 23.8989 51.5722 23.7673 51.7544C23.6253 51.9364 23.4383 52.0783 23.2247 52.166C22.9986 52.2684 22.7526 52.3195 22.5044 52.3157Z" fill="#2E524A"></path><path d="M28.0051 48.3105V48.9935H26.7983V52.2396H26.1154V48.9935H24.918V48.3105H28.0051Z" fill="#2E524A"></path><path d="M29.1277 52.2396V48.3105H30.428C30.6889 48.3101 30.947 48.3643 31.1858 48.4696C31.4202 48.5676 31.6331 48.7106 31.8125 48.8905C31.9962 49.0688 32.1425 49.2819 32.2429 49.5173C32.3408 49.758 32.3916 50.0152 32.3925 50.2751C32.3908 50.5379 32.34 50.798 32.2429 51.0422C32.1402 51.2763 31.9942 51.489 31.8125 51.669C31.6331 51.8489 31.4202 51.9919 31.1858 52.0899C30.9463 52.192 30.6883 52.243 30.428 52.2396H29.1277ZM29.8106 51.5567H30.428C30.5956 51.5571 30.7614 51.522 30.9145 51.4538C31.0699 51.3947 31.2105 51.3021 31.3261 51.1825C31.4464 51.0692 31.5419 50.9323 31.6067 50.7802C31.6739 50.6203 31.7089 50.4486 31.7096 50.2751C31.7053 50.1141 31.6703 49.9553 31.6067 49.8073C31.4671 49.5061 31.2251 49.2641 30.9238 49.1244C30.7671 49.0572 30.5985 49.0223 30.428 49.0215H29.8106V51.5567Z" fill="#2E524A"></path><path d="M35.3673 50.2188H37.1635V50.9017H35.3673V50.2188Z" fill="#2E524A"></path><path d="M40.1945 52.241V51.6797L40.6248 51.3335C40.7932 51.2026 40.9616 51.0529 41.1394 50.8939C41.3171 50.7348 41.4761 50.5758 41.6258 50.4168C41.7596 50.2774 41.8816 50.1272 41.9907 49.9677C42.0705 49.858 42.119 49.7287 42.131 49.5935C42.1319 49.4848 42.1028 49.378 42.0468 49.2848C41.9925 49.195 41.919 49.1183 41.8316 49.0603C41.7355 49.0031 41.6254 48.9739 41.5136 48.9761C41.4049 48.9752 41.298 49.0043 41.2048 49.0603C41.1125 49.1153 41.0353 49.1925 40.9803 49.2848C40.9243 49.378 40.8952 49.4848 40.8961 49.5935H40.2132C40.2089 49.3598 40.2705 49.1296 40.391 48.9293C40.5082 48.7358 40.6723 48.575 40.8681 48.4616C41.0669 48.351 41.2907 48.293 41.5182 48.293C41.7458 48.293 41.9696 48.351 42.1684 48.4616C42.3557 48.5622 42.5186 48.7027 42.6455 48.8732C42.7621 49.0717 42.8234 49.2978 42.8232 49.528C42.8219 49.6594 42.7966 49.7894 42.7484 49.9116C42.6981 50.0496 42.6322 50.1815 42.552 50.3045C42.4621 50.4457 42.3621 50.5802 42.2526 50.7068C42.1403 50.8377 42.0187 50.9687 41.8784 51.109L41.4481 51.5394H42.842V52.2223L40.1945 52.241Z" fill="#2E524A"></path><path d="M45.2929 52.3157C45.0769 52.3164 44.8643 52.2616 44.6755 52.1567C44.4819 52.0492 44.3155 51.8988 44.189 51.717C44.0462 51.522 43.9386 51.3035 43.8709 51.0715C43.8027 50.8119 43.7682 50.5447 43.768 50.2763C43.7676 50.011 43.8022 49.7468 43.8709 49.4905C43.9387 49.2556 44.0462 49.0341 44.189 48.8357C44.318 48.6562 44.4839 48.5063 44.6755 48.396C44.868 48.2975 45.0813 48.2461 45.2976 48.2461C45.5139 48.2461 45.7271 48.2975 45.9197 48.396C46.1089 48.5185 46.2687 48.6814 46.3874 48.8731C46.5308 49.0699 46.6355 49.2921 46.6961 49.5279C46.7727 49.7828 46.8105 50.0477 46.8084 50.3138C46.8093 50.5828 46.7715 50.8506 46.6961 51.1089C46.6272 51.3157 46.5228 51.5088 46.3874 51.6796C46.2644 51.8609 46.1011 52.0114 45.9103 52.1193C45.7249 52.2369 45.5122 52.3046 45.2929 52.3157ZM45.2929 51.6328C45.3838 51.6357 45.4743 51.6207 45.5594 51.5886C45.6445 51.5565 45.7224 51.5079 45.7887 51.4457C45.9281 51.3058 46.0282 51.1315 46.0787 50.9405C46.1468 50.7257 46.1816 50.5017 46.1816 50.2763C46.1831 50.0478 46.1484 49.8204 46.0787 49.6028C46.0232 49.4145 45.9201 49.2438 45.7793 49.107C45.6468 48.9862 45.4721 48.9223 45.2929 48.9292C45.1551 48.9276 45.0193 48.9632 44.9 49.0321C44.7844 49.1126 44.6885 49.2181 44.6193 49.3408C44.5481 49.4769 44.4946 49.6215 44.4603 49.7712C44.3748 50.159 44.3942 50.5626 44.5164 50.9405C44.5708 51.1299 44.6703 51.3033 44.8064 51.4457C44.9315 51.5846 45.1063 51.6686 45.2929 51.6796V51.6328Z" fill="#2E524A"></path><path d="M48.2584 52.2396V48.9935H47.7626L47.9497 48.3105H48.9413V52.2396H48.2584Z" fill="#2E524A"></path><path d="M51.5046 52.3144C51.2636 52.3201 51.0262 52.255 50.8217 52.1274C50.6202 52.01 50.4526 51.8424 50.3352 51.6409C50.2199 51.435 50.1588 51.2033 50.1575 50.9673H50.8498C50.8488 51.0849 50.8777 51.2008 50.934 51.3041C50.9929 51.4023 51.0768 51.483 51.1772 51.538C51.2745 51.6012 51.3886 51.6338 51.5046 51.6315C51.6236 51.634 51.7407 51.6015 51.8414 51.538C51.9389 51.4824 52.0196 51.4016 52.0753 51.3041C52.1387 51.2034 52.1713 51.0863 52.1688 50.9673C52.1697 50.8539 52.144 50.7418 52.094 50.6399C52.0348 50.5339 51.9474 50.4465 51.8414 50.3873C51.6968 50.3255 51.5402 50.2968 51.383 50.3031H50.3727L50.7936 48.3105H52.7207V48.9935H51.3456L51.224 49.6109H51.4953C51.7409 49.6147 51.9819 49.679 52.1969 49.798C52.4012 49.9135 52.5701 50.0826 52.6855 50.287C52.8008 50.4914 52.8583 50.7234 52.8517 50.958C52.852 51.1377 52.817 51.3156 52.7488 51.4819C52.6809 51.6427 52.5825 51.7889 52.4588 51.9122C52.3348 52.0349 52.1888 52.1333 52.0285 52.2022C51.8629 52.2736 51.6849 52.3117 51.5046 52.3144Z" fill="#2E524A"></path><circle cx="35" cy="35" r="34.5" stroke="#2E524A"></circle></svg>