<svg xmlns="http://www.w3.org/2000/svg" width="24" height="24" viewBox="0 0 24 24" fill="none"><path d="M12 4L10.8522 5.91303C9.94978 7.41704 9.49857 8.16905 9.49857 9C9.49857 9.83095 9.94978 10.583 10.8522 12.087L11.5713 13.2854C11.7627 13.6045 11.8585 13.7641 12 13.7641C12.1415 13.7641 12.2373 13.6045 12.4287 13.2854L13.1478 12.087C14.0502 10.583 14.5014 9.83095 14.5014 9C14.5014 8.16905 14.0502 7.41704 13.1478 5.91303L12 4ZM12 4V2" stroke="#2E524A" stroke-width="2"></path><path d="M20.1603 12.5981L17.9296 12.5606C16.1759 12.5311 15.299 12.5163 14.5794 12.9318C13.8598 13.3473 13.4341 14.114 12.5828 15.6475L11.9045 16.8695C11.7238 17.1949 11.6335 17.3575 11.7043 17.4801C11.7751 17.6027 11.9611 17.6058 12.3332 17.6121L13.7306 17.6356C15.4844 17.6651 16.3612 17.6799 17.0808 17.2644C17.8005 16.8489 18.2261 16.0821 19.0774 14.5486L20.1603 12.5981ZM20.1603 12.5981L21.8923 11.5981" stroke="#2E524A" stroke-width="2"></path><path d="M3.83975 12.5981L6.07038 12.5606C7.8241 12.5311 8.70096 12.5163 9.42059 12.9318C10.1402 13.3473 10.5659 14.114 11.4172 15.6475L12.0955 16.8695C12.2762 17.1949 12.3665 17.3575 12.2957 17.4801C12.2249 17.6027 12.0389 17.6058 11.6668 17.6121L10.2694 17.6356C8.51565 17.6651 7.63879 17.6799 6.91916 17.2644C6.19953 16.8489 5.77388 16.0821 4.92257 14.5486L3.83975 12.5981ZM3.83975 12.5981L2.1077 11.5981" stroke="#2E524A" stroke-width="2"></path><path d="M12 15V22.5" stroke="#2E524A" stroke-width="2"></path></svg>